<svg xmlns="http://www.w3.org/2000/svg" xmlns:xlink="http://www.w3.org/1999/xlink" viewBox="0,0,256,256" width="50px" height="50px" fill-rule="nonzero"><g fill-opacity="0" fill="#dddddd" fill-rule="nonzero" stroke="none" stroke-width="1" stroke-linecap="butt" stroke-linejoin="miter" stroke-miterlimit="10" stroke-dasharray="" stroke-dashoffset="0" font-family="none" font-weight="none" font-size="none" text-anchor="none" style="mix-blend-mode: normal"><path d="M0,256v-256h256v256z" id="bgRectangle"></path></g><g fill="none" fill-rule="nonzero" stroke="none" stroke-width="none" stroke-linecap="butt" stroke-linejoin="none" stroke-miterlimit="10" stroke-dasharray="" stroke-dashoffset="0" font-family="none" font-weight="none" font-size="none" text-anchor="none" style="mix-blend-mode: normal"><path transform="scale(5.12,5.12)" d="M47,25c0,11.137 -8.284,20.318 -19.022,21.775v-15.944h5.694l0.894,-5.783h-6.588v-3.161c0,-2.402 0.785,-4.533 3.033,-4.533h3.612v-5.048c-0.635,-0.086 -1.976,-0.274 -4.512,-0.274c-5.295,0 -8.399,2.797 -8.399,9.168v3.848h-5.443v5.783h5.443v15.897c-10.587,-1.591 -18.712,-10.698 -18.712,-21.728c0,-12.15 9.85,-22 22,-22c12.15,0 22,9.85 22,22z" id="strokeMainSVG" fill="#dddddd" stroke="#dddddd" stroke-width="4" stroke-linejoin="round"></path><g transform="scale(5.12,5.12)" fill="#1e2938" stroke="none" stroke-width="1" stroke-linejoin="miter"><path d="M25,3c-12.15,0 -22,9.85 -22,22c0,11.03 8.125,20.137 18.712,21.728v-15.897h-5.443v-5.783h5.443v-3.848c0,-6.371 3.104,-9.168 8.399,-9.168c2.536,0 3.877,0.188 4.512,0.274v5.048h-3.612c-2.248,0 -3.033,2.131 -3.033,4.533v3.161h6.588l-0.894,5.783h-5.694v15.944c10.738,-1.457 19.022,-10.638 19.022,-21.775c0,-12.15 -9.85,-22 -22,-22z"></path></g></g></svg>